<svg xmlns="http://www.w3.org/2000/svg" viewBox="0 0 5950.9800000000005 677" width="5950.9800000000005" height="677" style="--bg:#1a1b26;--fg:#a9b1d6;--line:#3d59a1;--accent:#7aa2f7;--muted:#565f89;background:var(--bg)">
<style>
  @import url('https://fonts.googleapis.com/css2?family=Inter:wght@400;500;600;700&amp;display=swap');
  text { font-family: 'Inter', system-ui, sans-serif; }
  svg {
    /* Derived from --bg and --fg (overridable via --line, --accent, etc.) */
    --_text:          var(--fg);
    --_text-sec:      var(--muted, color-mix(in srgb, var(--fg) 60%, var(--bg)));
    --_text-muted:    var(--muted, color-mix(in srgb, var(--fg) 40%, var(--bg)));
    --_text-faint:    color-mix(in srgb, var(--fg) 25%, var(--bg));
    --_line:          var(--line, color-mix(in srgb, var(--fg) 30%, var(--bg)));
    --_arrow:         var(--accent, color-mix(in srgb, var(--fg) 50%, var(--bg)));
    --_node-fill:     var(--surface, color-mix(in srgb, var(--fg) 3%, var(--bg)));
    --_node-stroke:   var(--border, color-mix(in srgb, var(--fg) 20%, var(--bg)));
    --_group-fill:    var(--bg);
    --_group-hdr:     color-mix(in srgb, var(--fg) 5%, var(--bg));
    --_inner-stroke:  color-mix(in srgb, var(--fg) 12%, var(--bg));
    --_key-badge:     color-mix(in srgb, var(--fg) 10%, var(--bg));
  }
</style>
<defs>
  <marker id="arrowhead" markerWidth="8" markerHeight="4.8" refX="8" refY="2.4" orient="auto">
    <polygon points="0 0, 8 2.4, 0 4.8" fill="var(--_arrow)" />
  </marker>
  <marker id="arrowhead-start" markerWidth="8" markerHeight="4.8" refX="0" refY="2.4" orient="auto-start-reverse">
    <polygon points="8 0, 0 2.4, 8 4.8" fill="var(--_arrow)" />
  </marker>
</defs>
<rect x="40" y="40" width="1355.7999999999993" height="112" rx="0" ry="0" fill="var(--_group-fill)" stroke="var(--_node-stroke)" stroke-width="1" />
<rect x="40" y="40" width="1355.7999999999993" height="28" rx="0" ry="0" fill="var(--_group-hdr)" stroke="var(--_node-stroke)" stroke-width="1" />
<text x="52" y="54" dy="0.35em" font-size="12" font-weight="600" fill="var(--_text-sec)">&quot;Skills (standalone slash commands)&quot;</text>
<rect x="1415.7999999999993" y="40" width="4495.180000000001" height="112" rx="0" ry="0" fill="var(--_group-fill)" stroke="var(--_node-stroke)" stroke-width="1" />
<rect x="1415.7999999999993" y="40" width="4495.180000000001" height="28" rx="0" ry="0" fill="var(--_group-hdr)" stroke="var(--_node-stroke)" stroke-width="1" />
<text x="1427.7999999999993" y="54" dy="0.35em" font-size="12" font-weight="600" fill="var(--_text-sec)">&quot;Commands (kyro-workflow:*)&quot;</text>
<rect x="841.6875000000005" y="196" width="1098.6374999999998" height="285" rx="0" ry="0" fill="var(--_group-fill)" stroke="var(--_node-stroke)" stroke-width="1" />
<rect x="841.6875000000005" y="196" width="1098.6374999999998" height="28" rx="0" ry="0" fill="var(--_group-hdr)" stroke="var(--_node-stroke)" stroke-width="1" />
<text x="853.6875000000005" y="210" dy="0.35em" font-size="12" font-weight="600" fill="var(--_text-sec)">&quot;AGENTS&quot;</text>
<rect x="686.3874999999989" y="525" width="5007.717500000002" height="112" rx="0" ry="0" fill="var(--_group-fill)" stroke="var(--_node-stroke)" stroke-width="1" />
<rect x="686.3874999999989" y="525" width="5007.717500000002" height="28" rx="0" ry="0" fill="var(--_group-hdr)" stroke="var(--_node-stroke)" stroke-width="1" />
<text x="698.3874999999989" y="539" dy="0.35em" font-size="12" font-weight="600" fill="var(--_text-sec)">&quot;SKILLS — domain knowledge&quot;</text>
<rect x="1960.3249999999998" y="196" width="2119.6499999999996" height="112" rx="0" ry="0" fill="var(--_group-fill)" stroke="var(--_node-stroke)" stroke-width="1" />
<rect x="1960.3249999999998" y="196" width="2119.6499999999996" height="28" rx="0" ry="0" fill="var(--_group-hdr)" stroke="var(--_node-stroke)" stroke-width="1" />
<text x="1972.3249999999998" y="210" dy="0.35em" font-size="12" font-weight="600" fill="var(--_text-sec)">&quot;HOOKS — 12 lifecycle events&quot;</text>
<rect x="2055.8499999999995" y="369" width="2433.6425000000004" height="112" rx="0" ry="0" fill="var(--_group-fill)" stroke="var(--_node-stroke)" stroke-width="1" />
<rect x="2055.8499999999995" y="369" width="2433.6425000000004" height="28" rx="0" ry="0" fill="var(--_group-hdr)" stroke="var(--_node-stroke)" stroke-width="1" />
<text x="2067.8499999999995" y="383" dy="0.35em" font-size="12" font-weight="600" fill="var(--_text-sec)">&quot;STORAGE — .agents/kyro-workflow/&quot;</text>
<polyline points="1532.449999999999,132 1532.449999999999,270 1573.5799999999992,270" fill="none" stroke="var(--_line)" stroke-width="0.75" marker-end="url(#arrowhead)" />
<polyline points="1749.324999999999,132 1749.324999999999,270 1848.6799999999992,270" fill="none" stroke="var(--_line)" stroke-width="0.75" marker-end="url(#arrowhead)" />
<polyline points="4534.709999999999,132 4534.709999999999,152 1850.5499999999993,152 1850.5499999999993,270 1848.6799999999992,270" fill="none" stroke="var(--_line)" stroke-width="0.75" marker-end="url(#arrowhead)" />
<polyline points="4110.6849999999995,132 4110.6849999999995,152 4171.33,152 4171.33,443 4107.254999999999,443" fill="none" stroke="var(--_line)" stroke-width="0.75" stroke-dasharray="4 4" marker-end="url(#arrowhead)" />
<polyline points="4323.984999999999,132 4323.984999999999,152 4384.63,152 4384.63,443 4446.705,443" fill="none" stroke="var(--_line)" stroke-width="0.75" stroke-dasharray="4 4" marker-end="url(#arrowhead)" />
<polyline points="1711.1299999999992,288 1711.1299999999992,308 1245.137499999999,308 1245.137499999999,425" fill="none" stroke="var(--_line)" stroke-width="0.75" marker-end="url(#arrowhead)" />
<polyline points="1711.1299999999992,288 1711.1299999999992,308 1786.1374999999994,308 1786.1374999999994,425" fill="none" stroke="var(--_line)" stroke-width="0.75" marker-end="url(#arrowhead)" />
<polyline points="1711.1299999999992,288 1711.1299999999992,308 1515.637499999999,308 1515.637499999999,425" fill="none" stroke="var(--_line)" stroke-width="0.75" marker-end="url(#arrowhead)" />
<polyline points="1711.1299999999992,288 1711.1299999999992,308 881.6875,308 881.6875,581" fill="none" stroke="var(--_line)" stroke-width="0.75" stroke-dasharray="4 4" marker-end="url(#arrowhead)" />
<polyline points="1245.137499999999,461 1245.137499999999,581" fill="none" stroke="var(--_line)" stroke-width="0.75" stroke-dasharray="4 4" marker-end="url(#arrowhead)" />
<polyline points="1786.1374999999994,461 1786.1374999999994,581" fill="none" stroke="var(--_line)" stroke-width="0.75" stroke-dasharray="4 4" marker-end="url(#arrowhead)" />
<polyline points="4534.709999999999,132 4534.709999999999,152 4594.355,152 4594.355,581" fill="none" stroke="var(--_line)" stroke-width="0.75" stroke-dasharray="4 4" marker-end="url(#arrowhead)" />
<polyline points="5256.905,132 5256.905,581" fill="none" stroke="var(--_line)" stroke-width="0.75" stroke-dasharray="4 4" marker-end="url(#arrowhead)" />
<polyline points="4914.905,132 4914.905,581" fill="none" stroke="var(--_line)" stroke-width="0.75" stroke-dasharray="4 4" marker-end="url(#arrowhead)" />
<polyline points="5556.005,132 5556.005,581" fill="none" stroke="var(--_line)" stroke-width="0.75" stroke-dasharray="4 4" marker-end="url(#arrowhead)" />
<polyline points="3205.4499999999994,288 3205.4499999999994,443 3282.329999999999,443" fill="none" stroke="var(--_line)" stroke-width="0.75" marker-end="url(#arrowhead)" />
<polyline points="2127.0249999999996,288 2127.0249999999996,443 2326.1124999999997,443" fill="none" stroke="var(--_line)" stroke-width="0.75" marker-end="url(#arrowhead)" />
<polyline points="3450.9249999999993,288 3450.9249999999993,443 3500.2299999999987,443" fill="none" stroke="var(--_line)" stroke-width="0.75" marker-end="url(#arrowhead)" />
<polyline points="2685.8999999999996,288 2685.8999999999996,443 2486.8124999999995,443" fill="none" stroke="var(--_line)" stroke-width="0.75" marker-end="url(#arrowhead)" />
<polyline points="3949.0249999999996,288 3949.0249999999996,425" fill="none" stroke="var(--_line)" stroke-width="0.75" marker-end="url(#arrowhead)" />
<polyline points="1711.1299999999992,288 1711.1299999999992,308 1883.9899999999998,308 1883.9899999999998,443 4107.254999999999,443" fill="none" stroke="var(--_line)" stroke-width="0.75" marker-end="url(#arrowhead)" />
<polyline points="1711.1299999999992,288 1711.1299999999992,308 1863.9899999999998,308 1863.9899999999998,443 2326.1124999999997,443" fill="none" stroke="var(--_line)" stroke-width="0.75" marker-end="url(#arrowhead)" />
<rect x="4146.17" y="256.5" width="50.32" height="27" rx="4" ry="4" fill="var(--bg)" stroke="var(--_inner-stroke)" stroke-width="0.5" />
<text x="4171.33" y="270" text-anchor="middle" dy="0.35em" font-size="11" font-weight="400" fill="var(--_text-muted)">direct</text>
<rect x="4359.47" y="256.5" width="50.32" height="27" rx="4" ry="4" fill="var(--bg)" stroke="var(--_inner-stroke)" stroke-width="0.5" />
<text x="4384.63" y="270" text-anchor="middle" dy="0.35em" font-size="11" font-weight="400" fill="var(--_text-muted)">direct</text>
<rect x="1225.6974999999989" y="343" width="38.88" height="27" rx="4" ry="4" fill="var(--bg)" stroke="var(--_inner-stroke)" stroke-width="0.5" />
<text x="1245.137499999999" y="356.5" text-anchor="middle" dy="0.35em" font-size="11" font-weight="400" fill="var(--_text-muted)">INIT</text>
<rect x="1755.2574999999993" y="343" width="61.760000000000005" height="27" rx="4" ry="4" fill="var(--bg)" stroke="var(--_inner-stroke)" stroke-width="0.5" />
<text x="1786.1374999999994" y="356.5" text-anchor="middle" dy="0.35em" font-size="11" font-weight="400" fill="var(--_text-muted)">validate</text>
<rect x="1487.617499999999" y="343" width="56.04" height="27" rx="4" ry="4" fill="var(--bg)" stroke="var(--_inner-stroke)" stroke-width="0.5" />
<text x="1515.637499999999" y="356.5" text-anchor="middle" dy="0.35em" font-size="11" font-weight="400" fill="var(--_text-muted)">failure</text>
<rect x="61.9999999999998" y="96" width="360.90000000000003" height="36" rx="0" ry="0" fill="var(--_node-fill)" stroke="var(--_node-stroke)" stroke-width="0.75" />
<rect x="446.9000000000004" y="96" width="146.4" height="36" rx="0" ry="0" fill="var(--_node-fill)" stroke="var(--_node-stroke)" stroke-width="0.75" />
<rect x="617.2999999999993" y="96" width="139.25" height="36" rx="0" ry="0" fill="var(--_node-fill)" stroke="var(--_node-stroke)" stroke-width="0.75" />
<rect x="780.5499999999993" y="96" width="139.25" height="36" rx="0" ry="0" fill="var(--_node-fill)" stroke="var(--_node-stroke)" stroke-width="0.75" />
<rect x="943.7999999999993" y="96" width="139.25" height="36" rx="0" ry="0" fill="var(--_node-fill)" stroke="var(--_node-stroke)" stroke-width="0.75" />
<rect x="1107.05" y="96" width="146.4" height="36" rx="0" ry="0" fill="var(--_node-fill)" stroke="var(--_node-stroke)" stroke-width="0.75" />
<rect x="1277.45" y="96" width="96.35000000000001" height="36" rx="0" ry="0" fill="var(--_node-fill)" stroke="var(--_node-stroke)" stroke-width="0.75" />
<rect x="1437.7999999999988" y="96" width="189.3" height="36" rx="0" ry="0" fill="var(--_node-fill)" stroke="var(--_node-stroke)" stroke-width="0.75" />
<rect x="1651.099999999999" y="96" width="196.45000000000002" height="36" rx="0" ry="0" fill="var(--_node-fill)" stroke="var(--_node-stroke)" stroke-width="0.75" />
<rect x="4012.4599999999996" y="96" width="196.45000000000002" height="36" rx="0" ry="0" fill="var(--_node-fill)" stroke="var(--_node-stroke)" stroke-width="0.75" />
<rect x="4232.909999999999" y="96" width="182.15" height="36" rx="0" ry="0" fill="var(--_node-fill)" stroke="var(--_node-stroke)" stroke-width="0.75" />
<rect x="4440.0599999999995" y="96" width="189.3" height="36" rx="0" ry="0" fill="var(--_node-fill)" stroke="var(--_node-stroke)" stroke-width="0.75" />
<rect x="5155.105" y="96" width="203.60000000000002" height="36" rx="0" ry="0" fill="var(--_node-fill)" stroke="var(--_node-stroke)" stroke-width="0.75" />
<rect x="4809.53" y="96" width="210.75000000000003" height="36" rx="0" ry="0" fill="var(--_node-fill)" stroke="var(--_node-stroke)" stroke-width="0.75" />
<rect x="5457.78" y="96" width="196.45000000000002" height="36" rx="0" ry="0" fill="var(--_node-fill)" stroke="var(--_node-stroke)" stroke-width="0.75" />
<rect x="5678.2300000000005" y="96" width="210.75000000000003" height="36" rx="0" ry="0" fill="var(--_node-fill)" stroke="var(--_node-stroke)" stroke-width="0.75" />
<rect x="1573.5799999999992" y="252" width="275.1" height="36" rx="0" ry="0" fill="var(--_node-fill)" stroke="var(--_node-stroke)" stroke-width="0.75" />
<rect x="1118.3124999999989" y="425" width="253.65" height="36" rx="0" ry="0" fill="var(--_node-fill)" stroke="var(--_node-stroke)" stroke-width="0.75" />
<rect x="1659.3124999999993" y="425" width="253.65" height="36" rx="0" ry="0" fill="var(--_node-fill)" stroke="var(--_node-stroke)" stroke-width="0.75" />
<rect x="1395.962499999999" y="425" width="239.35000000000002" height="36" rx="0" ry="0" fill="var(--_node-fill)" stroke="var(--_node-stroke)" stroke-width="0.75" />
<rect x="708.3875" y="581" width="346.6" height="36" rx="0" ry="0" fill="var(--_node-fill)" stroke="var(--_node-stroke)" stroke-width="0.75" />
<rect x="1078.9874999999988" y="581" width="332.3" height="36" rx="0" ry="0" fill="var(--_node-fill)" stroke="var(--_node-stroke)" stroke-width="0.75" />
<rect x="1612.8374999999994" y="581" width="346.6" height="36" rx="0" ry="0" fill="var(--_node-fill)" stroke="var(--_node-stroke)" stroke-width="0.75" />
<rect x="4456.804999999999" y="581" width="275.1" height="36" rx="0" ry="0" fill="var(--_node-fill)" stroke="var(--_node-stroke)" stroke-width="0.75" />
<rect x="4755.905" y="581" width="318" height="36" rx="0" ry="0" fill="var(--_node-fill)" stroke="var(--_node-stroke)" stroke-width="0.75" />
<rect x="5097.905" y="581" width="318" height="36" rx="0" ry="0" fill="var(--_node-fill)" stroke="var(--_node-stroke)" stroke-width="0.75" />
<rect x="5439.905" y="581" width="232.20000000000002" height="36" rx="0" ry="0" fill="var(--_node-fill)" stroke="var(--_node-stroke)" stroke-width="0.75" />
<rect x="3092.9249999999993" y="252" width="225.05" height="36" rx="0" ry="0" fill="var(--_node-fill)" stroke="var(--_node-stroke)" stroke-width="0.75" />
<rect x="2295.7249999999995" y="252" width="260.8" height="36" rx="0" ry="0" fill="var(--_node-fill)" stroke="var(--_node-stroke)" stroke-width="0.75" />
<rect x="3840.075" y="252" width="217.9" height="36" rx="0" ry="0" fill="var(--_node-fill)" stroke="var(--_node-stroke)" stroke-width="0.75" />
<rect x="2815.2749999999996" y="252" width="253.65" height="36" rx="0" ry="0" fill="var(--_node-fill)" stroke="var(--_node-stroke)" stroke-width="0.75" />
<rect x="1982.3249999999996" y="252" width="289.40000000000003" height="36" rx="0" ry="0" fill="var(--_node-fill)" stroke="var(--_node-stroke)" stroke-width="0.75" />
<rect x="3341.9749999999995" y="252" width="217.9" height="36" rx="0" ry="0" fill="var(--_node-fill)" stroke="var(--_node-stroke)" stroke-width="0.75" />
<rect x="3583.8749999999995" y="252" width="232.20000000000002" height="36" rx="0" ry="0" fill="var(--_node-fill)" stroke="var(--_node-stroke)" stroke-width="0.75" />
<rect x="2580.5249999999996" y="252" width="210.75000000000003" height="36" rx="0" ry="0" fill="var(--_node-fill)" stroke="var(--_node-stroke)" stroke-width="0.75" />
<rect x="2326.1124999999997" y="425" width="160.70000000000002" height="36" rx="0" ry="0" fill="var(--_node-fill)" stroke="var(--_node-stroke)" stroke-width="0.75" />
<rect x="3282.329999999999" y="425" width="217.9" height="36" rx="0" ry="0" fill="var(--_node-fill)" stroke="var(--_node-stroke)" stroke-width="0.75" />
<rect x="3872.2499999999995" y="425" width="153.55" height="36" rx="0" ry="0" fill="var(--_node-fill)" stroke="var(--_node-stroke)" stroke-width="0.75" />
<rect x="4107.254999999999" y="425" width="339.45000000000005" height="36" rx="0" ry="0" fill="var(--_node-fill)" stroke="var(--_node-stroke)" stroke-width="0.75" />
<text x="242.44999999999982" y="114" text-anchor="middle" dy="0.35em" font-size="13" font-weight="500" fill="var(--_text)">&quot;/sprint-forge — Core: INIT · SPRINT · STATUS&quot;</text>
<text x="520.1000000000004" y="114" text-anchor="middle" dy="0.35em" font-size="13" font-weight="500" fill="var(--_text)">&quot;/kyro-analyzer&quot;</text>
<text x="686.9249999999993" y="114" text-anchor="middle" dy="0.35em" font-size="13" font-weight="500" fill="var(--_text)">&quot;/kyro-learner&quot;</text>
<text x="850.1749999999993" y="114" text-anchor="middle" dy="0.35em" font-size="13" font-weight="500" fill="var(--_text)">&quot;/kyro-metrics&quot;</text>
<text x="1013.4249999999993" y="114" text-anchor="middle" dy="0.35em" font-size="13" font-weight="500" fill="var(--_text)">&quot;/kyro-handoff&quot;</text>
<text x="1180.25" y="114" text-anchor="middle" dy="0.35em" font-size="13" font-weight="500" fill="var(--_text)">&quot;/kyro-reviewer&quot;</text>
<text x="1325.625" y="114" text-anchor="middle" dy="0.35em" font-size="13" font-weight="500" fill="var(--_text)">&quot;/deslop&quot;</text>
<text x="1532.449999999999" y="114" text-anchor="middle" dy="0.35em" font-size="13" font-weight="500" fill="var(--_text)">&quot;/kyro-workflow:forge&quot;</text>
<text x="1749.324999999999" y="114" text-anchor="middle" dy="0.35em" font-size="13" font-weight="500" fill="var(--_text)">&quot;/kyro-workflow:sprint&quot;</text>
<text x="4110.6849999999995" y="114" text-anchor="middle" dy="0.35em" font-size="13" font-weight="500" fill="var(--_text)">&quot;/kyro-workflow:status&quot;</text>
<text x="4323.984999999999" y="114" text-anchor="middle" dy="0.35em" font-size="13" font-weight="500" fill="var(--_text)">&quot;/kyro-workflow:debt&quot;</text>
<text x="4534.709999999999" y="114" text-anchor="middle" dy="0.35em" font-size="13" font-weight="500" fill="var(--_text)">&quot;/kyro-workflow:retro&quot;</text>
<text x="5256.905" y="114" text-anchor="middle" dy="0.35em" font-size="13" font-weight="500" fill="var(--_text)">&quot;/kyro-workflow:wrap-up&quot;</text>
<text x="4914.905" y="114" text-anchor="middle" dy="0.35em" font-size="13" font-weight="500" fill="var(--_text)">&quot;/kyro-workflow:insights&quot;</text>
<text x="5556.005" y="114" text-anchor="middle" dy="0.35em" font-size="13" font-weight="500" fill="var(--_text)">&quot;/kyro-workflow:deslop&quot;</text>
<text x="5783.6050000000005" y="114" text-anchor="middle" dy="0.35em" font-size="13" font-weight="500" fill="var(--_text)">&quot;/kyro-workflow:parallel&quot;</text>
<text x="1711.1299999999992" y="270" text-anchor="middle" dy="0.35em" font-size="13" font-weight="500" fill="var(--_text)">&quot;orchestrator — opus · read+write&quot;</text>
<text x="1245.137499999999" y="443" text-anchor="middle" dy="0.35em" font-size="13" font-weight="500" fill="var(--_text)">&quot;explorer — sonnet · read-only&quot;</text>
<text x="1786.1374999999994" y="443" text-anchor="middle" dy="0.35em" font-size="13" font-weight="500" fill="var(--_text)">&quot;reviewer — sonnet · read-only&quot;</text>
<text x="1515.637499999999" y="443" text-anchor="middle" dy="0.35em" font-size="13" font-weight="500" fill="var(--_text)">&quot;debugger — opus · read-only&quot;</text>
<text x="881.6875" y="599" text-anchor="middle" dy="0.35em" font-size="13" font-weight="500" fill="var(--_text)">&quot;sprint-forge — modes · helpers · templates&quot;</text>
<text x="1245.137499999999" y="599" text-anchor="middle" dy="0.35em" font-size="13" font-weight="500" fill="var(--_text)">&quot;kyro-analyzer — strategies per work type&quot;</text>
<text x="1786.1374999999994" y="599" text-anchor="middle" dy="0.35em" font-size="13" font-weight="500" fill="var(--_text)">&quot;kyro-reviewer — BLOCKER/WARNING/SUGGESTION&quot;</text>
<text x="4594.355" y="599" text-anchor="middle" dy="0.35em" font-size="13" font-weight="500" fill="var(--_text)">&quot;kyro-learner — per-project rules&quot;</text>
<text x="4914.905" y="599" text-anchor="middle" dy="0.35em" font-size="13" font-weight="500" fill="var(--_text)">&quot;kyro-metrics — velocity · debt heatmap&quot;</text>
<text x="5256.905" y="599" text-anchor="middle" dy="0.35em" font-size="13" font-weight="500" fill="var(--_text)">&quot;kyro-handoff — mental context transfer&quot;</text>
<text x="5556.005" y="599" text-anchor="middle" dy="0.35em" font-size="13" font-weight="500" fill="var(--_text)">&quot;deslop — AI slop detection&quot;</text>
<text x="3205.4499999999994" y="270" text-anchor="middle" dy="0.35em" font-size="13" font-weight="500" fill="var(--_text)">&quot;SessionStart — load rules&quot;</text>
<text x="2426.1249999999995" y="270" text-anchor="middle" dy="0.35em" font-size="13" font-weight="500" fill="var(--_text)">&quot;UserPromptSubmit — drift check&quot;</text>
<text x="3949.0249999999996" y="270" text-anchor="middle" dy="0.35em" font-size="13" font-weight="500" fill="var(--_text)">&quot;PreToolUse — track edits&quot;</text>
<text x="2942.0999999999995" y="270" text-anchor="middle" dy="0.35em" font-size="13" font-weight="500" fill="var(--_text)">&quot;PostToolUse — check artifacts&quot;</text>
<text x="2127.0249999999996" y="270" text-anchor="middle" dy="0.35em" font-size="13" font-weight="500" fill="var(--_text)">&quot;TaskCompleted — reviewer checklist&quot;</text>
<text x="3450.9249999999993" y="270" text-anchor="middle" dy="0.35em" font-size="13" font-weight="500" fill="var(--_text)">&quot;Stop — capture learnings&quot;</text>
<text x="3699.9749999999995" y="270" text-anchor="middle" dy="0.35em" font-size="13" font-weight="500" fill="var(--_text)">&quot;PreCompact — save re-entry&quot;</text>
<text x="2685.8999999999996" y="270" text-anchor="middle" dy="0.35em" font-size="13" font-weight="500" fill="var(--_text)">&quot;SessionEnd — save stats&quot;</text>
<text x="2406.4624999999996" y="443" text-anchor="middle" dy="0.35em" font-size="13" font-weight="500" fill="var(--_text)">&quot;data.db — SQLite&quot;</text>
<text x="3391.279999999999" y="443" text-anchor="middle" dy="0.35em" font-size="13" font-weight="500" fill="var(--_text)">&quot;rules.md — learned rules&quot;</text>
<text x="3949.0249999999996" y="443" text-anchor="middle" dy="0.35em" font-size="13" font-weight="500" fill="var(--_text)">&quot;.active-session&quot;</text>
<text x="4276.98" y="443" text-anchor="middle" dy="0.35em" font-size="13" font-weight="500" fill="var(--_text)">&quot;{project}/ — findings · sprints · ROADMAP&quot;</text>
</svg>