<svg id="my-svg" width="100%" xmlns="http://www.w3.org/2000/svg" xmlns:xlink="http://www.w3.org/1999/xlink" class="flowchart" style="max-width: 2714.95px; background-color: white;" viewBox="0 0 2714.953125 819" role="graphics-document document" aria-roledescription="flowchart-v2"><style>#my-svg{font-family:"trebuchet ms",verdana,arial,sans-serif;font-size:16px;fill:#333;}@keyframes edge-animation-frame{from{stroke-dashoffset:0;}}@keyframes dash{to{stroke-dashoffset:0;}}#my-svg .edge-animation-slow{stroke-dasharray:9,5!important;stroke-dashoffset:900;animation:dash 50s linear infinite;stroke-linecap:round;}#my-svg .edge-animation-fast{stroke-dasharray:9,5!important;stroke-dashoffset:900;animation:dash 20s linear infinite;stroke-linecap:round;}#my-svg .error-icon{fill:#552222;}#my-svg .error-text{fill:#552222;stroke:#552222;}#my-svg .edge-thickness-normal{stroke-width:1px;}#my-svg .edge-thickness-thick{stroke-width:3.5px;}#my-svg .edge-pattern-solid{stroke-dasharray:0;}#my-svg .edge-thickness-invisible{stroke-width:0;fill:none;}#my-svg .edge-pattern-dashed{stroke-dasharray:3;}#my-svg .edge-pattern-dotted{stroke-dasharray:2;}#my-svg .marker{fill:#333333;stroke:#333333;}#my-svg .marker.cross{stroke:#333333;}#my-svg svg{font-family:"trebuchet ms",verdana,arial,sans-serif;font-size:16px;}#my-svg p{margin:0;}#my-svg .label{font-family:"trebuchet ms",verdana,arial,sans-serif;color:#333;}#my-svg .cluster-label text{fill:#333;}#my-svg .cluster-label span{color:#333;}#my-svg .cluster-label span p{background-color:transparent;}#my-svg .label text,#my-svg span{fill:#333;color:#333;}#my-svg .node rect,#my-svg .node circle,#my-svg .node ellipse,#my-svg .node polygon,#my-svg .node path{fill:#ECECFF;stroke:#9370DB;stroke-width:1px;}#my-svg .rough-node .label text,#my-svg .node .label text,#my-svg .image-shape .label,#my-svg .icon-shape .label{text-anchor:middle;}#my-svg .node .katex path{fill:#000;stroke:#000;stroke-width:1px;}#my-svg .rough-node .label,#my-svg .node .label,#my-svg .image-shape .label,#my-svg .icon-shape .label{text-align:center;}#my-svg .node.clickable{cursor:pointer;}#my-svg .root .anchor path{fill:#333333!important;stroke-width:0;stroke:#333333;}#my-svg .arrowheadPath{fill:#333333;}#my-svg .edgePath .path{stroke:#333333;stroke-width:2.0px;}#my-svg .flowchart-link{stroke:#333333;fill:none;}#my-svg .edgeLabel{background-color:rgba(232,232,232, 0.8);text-align:center;}#my-svg .edgeLabel p{background-color:rgba(232,232,232, 0.8);}#my-svg .edgeLabel rect{opacity:0.5;background-color:rgba(232,232,232, 0.8);fill:rgba(232,232,232, 0.8);}#my-svg .labelBkg{background-color:rgba(232, 232, 232, 0.5);}#my-svg .cluster rect{fill:#ffffde;stroke:#aaaa33;stroke-width:1px;}#my-svg .cluster text{fill:#333;}#my-svg .cluster span{color:#333;}#my-svg div.mermaidTooltip{position:absolute;text-align:center;max-width:200px;padding:2px;font-family:"trebuchet ms",verdana,arial,sans-serif;font-size:12px;background:hsl(80, 100%, 96.2745098039%);border:1px solid #aaaa33;border-radius:2px;pointer-events:none;z-index:100;}#my-svg .flowchartTitleText{text-anchor:middle;font-size:18px;fill:#333;}#my-svg rect.text{fill:none;stroke-width:0;}#my-svg .icon-shape,#my-svg .image-shape{background-color:rgba(232,232,232, 0.8);text-align:center;}#my-svg .icon-shape p,#my-svg .image-shape p{background-color:rgba(232,232,232, 0.8);padding:2px;}#my-svg .icon-shape .label rect,#my-svg .image-shape .label rect{opacity:0.5;background-color:rgba(232,232,232, 0.8);fill:rgba(232,232,232, 0.8);}#my-svg .label-icon{display:inline-block;height:1em;overflow:visible;vertical-align:-0.125em;}#my-svg .node .label-icon path{fill:currentColor;stroke:revert;stroke-width:revert;}#my-svg :root{--mermaid-font-family:"trebuchet ms",verdana,arial,sans-serif;}</style><g><marker id="my-svg_flowchart-v2-pointEnd" class="marker flowchart-v2" viewBox="0 0 10 10" refX="5" refY="5" markerUnits="userSpaceOnUse" markerWidth="8" markerHeight="8" orient="auto"><path d="M 0 0 L 10 5 L 0 10 z" class="arrowMarkerPath" style="stroke-width: 1; stroke-dasharray: 1, 0;"/></marker><marker id="my-svg_flowchart-v2-pointStart" class="marker flowchart-v2" viewBox="0 0 10 10" refX="4.5" refY="5" markerUnits="userSpaceOnUse" markerWidth="8" markerHeight="8" orient="auto"><path d="M 0 5 L 10 10 L 10 0 z" class="arrowMarkerPath" style="stroke-width: 1; stroke-dasharray: 1, 0;"/></marker><marker id="my-svg_flowchart-v2-circleEnd" class="marker flowchart-v2" viewBox="0 0 10 10" refX="11" refY="5" markerUnits="userSpaceOnUse" markerWidth="11" markerHeight="11" orient="auto"><circle cx="5" cy="5" r="5" class="arrowMarkerPath" style="stroke-width: 1; stroke-dasharray: 1, 0;"/></marker><marker id="my-svg_flowchart-v2-circleStart" class="marker flowchart-v2" viewBox="0 0 10 10" refX="-1" refY="5" markerUnits="userSpaceOnUse" markerWidth="11" markerHeight="11" orient="auto"><circle cx="5" cy="5" r="5" class="arrowMarkerPath" style="stroke-width: 1; stroke-dasharray: 1, 0;"/></marker><marker id="my-svg_flowchart-v2-crossEnd" class="marker cross flowchart-v2" viewBox="0 0 11 11" refX="12" refY="5.2" markerUnits="userSpaceOnUse" markerWidth="11" markerHeight="11" orient="auto"><path d="M 1,1 l 9,9 M 10,1 l -9,9" class="arrowMarkerPath" style="stroke-width: 2; stroke-dasharray: 1, 0;"/></marker><marker id="my-svg_flowchart-v2-crossStart" class="marker cross flowchart-v2" viewBox="0 0 11 11" refX="-1" refY="5.2" markerUnits="userSpaceOnUse" markerWidth="11" markerHeight="11" orient="auto"><path d="M 1,1 l 9,9 M 10,1 l -9,9" class="arrowMarkerPath" style="stroke-width: 2; stroke-dasharray: 1, 0;"/></marker><g class="root"><g class="clusters"><g class="cluster" id="STORAGE" data-look="classic"><rect style="" x="1258.9765625" y="635" width="1098.171875" height="176"/><g class="cluster-label" transform="translate(1687.859375, 635)"><foreignObject width="240.40625" height="24"><div xmlns="http://www.w3.org/1999/xhtml" style="display: table-cell; white-space: nowrap; line-height: 1.5;"><span class="nodeLabel"><p>STORAGE — .agents/sprint-forge/</p></span></div></foreignObject></g></g><g class="cluster" id="KNOWLEDGE" data-look="classic"><rect style="" x="89.8828125" y="635" width="1084.921875" height="176"/><g class="cluster-label" transform="translate(532.1484375, 635)"><foreignObject width="200.390625" height="24"><div xmlns="http://www.w3.org/1999/xhtml" style="display: table-cell; white-space: nowrap; line-height: 1.5;"><span class="nodeLabel"><p>SKILLS — domain knowledge</p></span></div></foreignObject></g></g><g class="cluster" id="PROTOCOLS" data-look="classic"><rect style="" x="8" y="433" width="988.765625" height="152"/><g class="cluster-label" transform="translate(402.1015625, 433)"><foreignObject width="200.5625" height="24"><div xmlns="http://www.w3.org/1999/xhtml" style="display: table-cell; white-space: nowrap; line-height: 1.5;"><span class="nodeLabel"><p>ORCHESTRATOR PROTOCOLS</p></span></div></foreignObject></g></g><g class="cluster" id="AGENTS" data-look="classic"><rect style="" x="1057.4765625" y="256" width="1063.0234375" height="329"/><g class="cluster-label" transform="translate(1560.97265625, 256)"><foreignObject width="56.03125" height="24"><div xmlns="http://www.w3.org/1999/xhtml" style="display: table-cell; white-space: nowrap; line-height: 1.5;"><span class="nodeLabel"><p>AGENTS</p></span></div></foreignObject></g></g><g class="cluster" id="COMMANDS_ENTRY" data-look="classic"><rect style="" x="863.8671875" y="8" width="1473.0859375" height="198"/><g class="cluster-label" transform="translate(1496.34765625, 8)"><foreignObject width="208.125" height="24"><div xmlns="http://www.w3.org/1999/xhtml" style="display: table-cell; white-space: nowrap; line-height: 1.5;"><span class="nodeLabel"><p>Commands (kyro-workflow:*)</p></span></div></foreignObject></g></g></g><g class="edgePaths"><path d="M1335.008,134L1335.008,146C1335.008,158,1335.008,182,1335.008,198.167C1335.008,214.333,1335.008,222.667,1335.008,231C1335.008,239.333,1335.008,247.667,1335.008,255.333C1335.008,263,1335.008,270,1335.008,273.5L1335.008,277" id="L_CMD1_ORCH_0" class="edge-thickness-normal edge-pattern-solid edge-thickness-normal edge-pattern-solid flowchart-link" style=";" data-edge="true" data-et="edge" data-id="L_CMD1_ORCH_0" data-points="W3sieCI6MTMzNS4wMDc4MTI1LCJ5IjoxMzR9LHsieCI6MTMzNS4wMDc4MTI1LCJ5IjoyMDZ9LHsieCI6MTMzNS4wMDc4MTI1LCJ5IjoyMzF9LHsieCI6MTMzNS4wMDc4MTI1LCJ5IjoyNTZ9LHsieCI6MTMzNS4wMDc4MTI1LCJ5IjoyODF9XQ==" marker-end="url(#my-svg_flowchart-v2-pointEnd)"/><path d="M2192.148,134L2192.148,146C2192.148,158,2192.148,182,2192.148,198.167C2192.148,214.333,2192.148,222.667,2192.148,231C2192.148,239.333,2192.148,247.667,2192.148,262.5C2192.148,277.333,2192.148,298.667,2192.148,322C2192.148,345.333,2192.148,370.667,2192.148,389.5C2192.148,408.333,2192.148,420.667,2192.148,439.5C2192.148,458.333,2192.148,483.667,2192.148,509C2192.148,534.333,2192.148,559.667,2192.148,576.5C2192.148,593.333,2192.148,601.667,2192.148,610C2192.148,618.333,2192.148,626.667,2192.148,638.333C2192.148,650,2192.148,665,2192.148,672.5L2192.148,680" id="L_CMD2_PROJ_0" class="edge-thickness-normal edge-pattern-dotted edge-thickness-normal edge-pattern-solid flowchart-link" style=";" data-edge="true" data-et="edge" data-id="L_CMD2_PROJ_0" data-points="W3sieCI6MjE5Mi4xNDg0Mzc1LCJ5IjoxMzR9LHsieCI6MjE5Mi4xNDg0Mzc1LCJ5IjoyMDZ9LHsieCI6MjE5Mi4xNDg0Mzc1LCJ5IjoyMzF9LHsieCI6MjE5Mi4xNDg0Mzc1LCJ5IjoyNTZ9LHsieCI6MjE5Mi4xNDg0Mzc1LCJ5IjozMjB9LHsieCI6MjE5Mi4xNDg0Mzc1LCJ5IjozOTZ9LHsieCI6MjE5Mi4xNDg0Mzc1LCJ5Ijo0MzN9LHsieCI6MjE5Mi4xNDg0Mzc1LCJ5Ijo1MDl9LHsieCI6MjE5Mi4xNDg0Mzc1LCJ5Ijo1ODV9LHsieCI6MjE5Mi4xNDg0Mzc1LCJ5Ijo2MTB9LHsieCI6MjE5Mi4xNDg0Mzc1LCJ5Ijo2MzV9LHsieCI6MjE5Mi4xNDg0Mzc1LCJ5Ijo2ODR9XQ==" marker-end="url(#my-svg_flowchart-v2-pointEnd)"/><path d="M1016.766,134L1016.766,146C1016.766,158,1016.766,182,1016.766,198.167C1016.766,214.333,1016.766,222.667,1016.766,231C1016.766,239.333,1016.766,247.667,1016.766,262.5C1016.766,277.333,1016.766,298.667,1016.766,322C1016.766,345.333,1016.766,370.667,1016.766,389.5C1016.766,408.333,1016.766,420.667,1016.766,439.5C1016.766,458.333,1016.766,483.667,1016.766,509C1016.766,534.333,1016.766,559.667,1027.689,576.5C1038.612,593.333,1060.458,601.667,1071.382,610C1082.305,618.333,1082.305,626.667,1012.873,641.932C943.442,657.196,804.579,679.393,735.147,690.491L665.715,701.589" id="L_CMD3_S_FORGE_0" class="edge-thickness-normal edge-pattern-dotted edge-thickness-normal edge-pattern-solid flowchart-link" style=";" data-edge="true" data-et="edge" data-id="L_CMD3_S_FORGE_0" data-points="W3sieCI6MTAxNi43NjU2MjUsInkiOjEzNH0seyJ4IjoxMDE2Ljc2NTYyNSwieSI6MjA2fSx7IngiOjEwMTYuNzY1NjI1LCJ5IjoyMzF9LHsieCI6MTAxNi43NjU2MjUsInkiOjI1Nn0seyJ4IjoxMDE2Ljc2NTYyNSwieSI6MzIwfSx7IngiOjEwMTYuNzY1NjI1LCJ5IjozOTZ9LHsieCI6MTAxNi43NjU2MjUsInkiOjQzM30seyJ4IjoxMDE2Ljc2NTYyNSwieSI6NTA5fSx7IngiOjEwMTYuNzY1NjI1LCJ5Ijo1ODV9LHsieCI6MTA4Mi4zMDQ2ODc1LCJ5Ijo2MTB9LHsieCI6MTA4Mi4zMDQ2ODc1LCJ5Ijo2MzV9LHsieCI6NjYxLjc2NTYyNSwieSI6NzAyLjIyMDM2NjQwMjI0Nzh9XQ==" marker-end="url(#my-svg_flowchart-v2-pointEnd)"/><path d="M1250.128,359L1236.707,365.167C1223.286,371.333,1196.444,383.667,1183.023,396C1169.602,408.333,1169.602,420.667,1083.958,436.881C998.314,453.094,827.026,473.189,741.382,483.236L655.738,493.283" id="L_ORCH_ANALYSIS_0" class="edge-thickness-normal edge-pattern-solid edge-thickness-normal edge-pattern-solid flowchart-link" style=";" data-edge="true" data-et="edge" data-id="L_ORCH_ANALYSIS_0" data-points="W3sieCI6MTI1MC4xMjgyODk0NzM2ODQyLCJ5IjozNTl9LHsieCI6MTE2OS42MDE1NjI1LCJ5IjozOTZ9LHsieCI6MTE2OS42MDE1NjI1LCJ5Ijo0MzN9LHsieCI6NjUxLjc2NTYyNSwieSI6NDkzLjc0OTIyNTE4NDgxMDAzfV0=" marker-end="url(#my-svg_flowchart-v2-pointEnd)"/><path d="M1217.715,359L1199.169,365.167C1180.623,371.333,1143.53,383.667,1124.984,396C1106.438,408.333,1106.438,420.667,979.657,437.375C852.876,454.083,599.314,475.165,472.533,485.707L345.752,496.248" id="L_ORCH_REVIEW_0" class="edge-thickness-normal edge-pattern-solid edge-thickness-normal edge-pattern-solid flowchart-link" style=";" data-edge="true" data-et="edge" data-id="L_ORCH_REVIEW_0" data-points="W3sieCI6MTIxNy43MTUxNTIxMzgxNTgsInkiOjM1OX0seyJ4IjoxMTA2LjQzNzUsInkiOjM5Nn0seyJ4IjoxMTA2LjQzNzUsInkiOjQzM30seyJ4IjozNDEuNzY1NjI1LCJ5Ijo0OTYuNTc5NDE1MjA4Njc3fV0=" marker-end="url(#my-svg_flowchart-v2-pointEnd)"/><path d="M1279.815,359L1271.088,365.167C1262.361,371.333,1244.907,383.667,1236.18,396C1227.453,408.333,1227.453,420.667,1183.827,435.213C1140.2,449.759,1052.947,466.518,1009.32,474.897L965.694,483.276" id="L_ORCH_DEBUG_0" class="edge-thickness-normal edge-pattern-solid edge-thickness-normal edge-pattern-solid flowchart-link" style=";" data-edge="true" data-et="edge" data-id="L_ORCH_DEBUG_0" data-points="W3sieCI6MTI3OS44MTUyNzU0OTM0MjEsInkiOjM1OX0seyJ4IjoxMjI3LjQ1MzEyNSwieSI6Mzk2fSx7IngiOjEyMjcuNDUzMTI1LCJ5Ijo0MzN9LHsieCI6OTYxLjc2NTYyNSwieSI6NDg0LjAzMDgwMDgyMTM1NTIzfV0=" marker-end="url(#my-svg_flowchart-v2-pointEnd)"/><path d="M1302.214,359L1297.028,365.167C1291.843,371.333,1281.472,383.667,1276.287,396C1271.102,408.333,1271.102,420.667,1271.102,439.5C1271.102,458.333,1271.102,483.667,1271.102,509C1271.102,534.333,1271.102,559.667,1236.302,576.5C1201.503,593.333,1131.904,601.667,1097.104,610C1062.305,618.333,1062.305,626.667,996.206,641.797C930.107,656.927,797.909,678.855,731.811,689.819L665.712,700.782" id="L_ORCH_S_FORGE_0" class="edge-thickness-normal edge-pattern-dotted edge-thickness-normal edge-pattern-solid flowchart-link" style=";" data-edge="true" data-et="edge" data-id="L_ORCH_S_FORGE_0" data-points="W3sieCI6MTMwMi4yMTM4MTU3ODk0NzM4LCJ5IjozNTl9LHsieCI6MTI3MS4xMDE1NjI1LCJ5IjozOTZ9LHsieCI6MTI3MS4xMDE1NjI1LCJ5Ijo0MzN9LHsieCI6MTI3MS4xMDE1NjI1LCJ5Ijo1MDl9LHsieCI6MTI3MS4xMDE1NjI1LCJ5Ijo1ODV9LHsieCI6MTA2Mi4zMDQ2ODc1LCJ5Ijo2MTB9LHsieCI6MTA2Mi4zMDQ2ODc1LCJ5Ijo2MzV9LHsieCI6NjYxLjc2NTYyNSwieSI6NzAxLjQzNzAyNjAyMDExNTF9XQ==" marker-end="url(#my-svg_flowchart-v2-pointEnd)"/><path d="M1465.008,345.746L1507.298,354.122C1549.589,362.498,1634.169,379.249,1676.46,393.791C1718.75,408.333,1718.75,420.667,1718.75,432.333C1718.75,444,1718.75,455,1718.75,460.5L1718.75,466" id="L_ORCH_GUARDIAN_0" class="edge-thickness-normal edge-pattern-solid edge-thickness-normal edge-pattern-solid flowchart-link" style=";" data-edge="true" data-et="edge" data-id="L_ORCH_GUARDIAN_0" data-points="W3sieCI6MTQ2NS4wMDc4MTI1LCJ5IjozNDUuNzQ2NDUyNDkyOTI1MzZ9LHsieCI6MTcxOC43NSwieSI6Mzk2fSx7IngiOjE3MTguNzUsInkiOjQzM30seyJ4IjoxNzE4Ljc1LCJ5Ijo0NzB9XQ==" marker-end="url(#my-svg_flowchart-v2-pointEnd)"/><path d="M521.766,548L521.766,554.167C521.766,560.333,521.766,572.667,521.766,583C521.766,593.333,521.766,601.667,521.766,610C521.766,618.333,521.766,626.667,522.164,634.338C522.562,642.009,523.358,649.017,523.757,652.521L524.155,656.026" id="L_ANALYSIS_S_FORGE_0" class="edge-thickness-normal edge-pattern-dotted edge-thickness-normal edge-pattern-solid flowchart-link" style=";" data-edge="true" data-et="edge" data-id="L_ANALYSIS_S_FORGE_0" data-points="W3sieCI6NTIxLjc2NTYyNSwieSI6NTQ4fSx7IngiOjUyMS43NjU2MjUsInkiOjU4NX0seyJ4Ijo1MjEuNzY1NjI1LCJ5Ijo2MTB9LHsieCI6NTIxLjc2NTYyNSwieSI6NjM1fSx7IngiOjUyNC42MDY1MzQwOTA5MDkxLCJ5Ijo2NjB9XQ==" marker-end="url(#my-svg_flowchart-v2-pointEnd)"/><path d="M192.383,548L192.383,554.167C192.383,560.333,192.383,572.667,192.383,583C192.383,593.333,192.383,601.667,192.383,610C192.383,618.333,192.383,626.667,226.635,639.715C260.886,652.763,329.39,670.525,363.642,679.406L397.894,688.288" id="L_REVIEW_S_FORGE_0" class="edge-thickness-normal edge-pattern-dotted edge-thickness-normal edge-pattern-solid flowchart-link" style=";" data-edge="true" data-et="edge" data-id="L_REVIEW_S_FORGE_0" data-points="W3sieCI6MTkyLjM4MjgxMjUsInkiOjU0OH0seyJ4IjoxOTIuMzgyODEyNSwieSI6NTg1fSx7IngiOjE5Mi4zODI4MTI1LCJ5Ijo2MTB9LHsieCI6MTkyLjM4MjgxMjUsInkiOjYzNX0seyJ4Ijo0MDEuNzY1NjI1LCJ5Ijo2ODkuMjkxNzUyMDMxNDkxfV0=" marker-end="url(#my-svg_flowchart-v2-pointEnd)"/><path d="M1681.742,548L1675.891,554.167C1670.039,560.333,1658.336,572.667,1652.484,583C1646.633,593.333,1646.633,601.667,1646.633,610C1646.633,618.333,1646.633,626.667,1646.633,640.333C1646.633,654,1646.633,673,1646.633,682.5L1646.633,692" id="L_GUARDIAN_RULES_0" class="edge-thickness-normal edge-pattern-solid edge-thickness-normal edge-pattern-solid flowchart-link" style=";" data-edge="true" data-et="edge" data-id="L_GUARDIAN_RULES_0" data-points="W3sieCI6MTY4MS43NDI0OTU4ODgxNTgsInkiOjU0OH0seyJ4IjoxNjQ2LjYzMjgxMjUsInkiOjU4NX0seyJ4IjoxNjQ2LjYzMjgxMjUsInkiOjYxMH0seyJ4IjoxNjQ2LjYzMjgxMjUsInkiOjYzNX0seyJ4IjoxNjQ2LjYzMjgxMjUsInkiOjY5Nn1d" marker-end="url(#my-svg_flowchart-v2-pointEnd)"/><path d="M1609.656,548L1592.406,554.167C1575.156,560.333,1540.656,572.667,1523.406,583C1506.156,593.333,1506.156,601.667,1506.156,610C1506.156,618.333,1506.156,626.667,1492.776,640.607C1479.396,654.547,1452.635,674.094,1439.255,683.867L1425.874,693.641" id="L_GUARDIAN_DB_0" class="edge-thickness-normal edge-pattern-solid edge-thickness-normal edge-pattern-solid flowchart-link" style=";" data-edge="true" data-et="edge" data-id="L_GUARDIAN_DB_0" data-points="W3sieCI6MTYwOS42NTU4Mzg4MTU3ODk2LCJ5Ijo1NDh9LHsieCI6MTUwNi4xNTYyNSwieSI6NTg1fSx7IngiOjE1MDYuMTU2MjUsInkiOjYxMH0seyJ4IjoxNTA2LjE1NjI1LCJ5Ijo2MzV9LHsieCI6MTQyMi42NDQwODczNTc5NTQ1LCJ5Ijo2OTZ9XQ==" marker-end="url(#my-svg_flowchart-v2-pointEnd)"/><path d="M1811.082,548L1825.682,554.167C1840.281,560.333,1869.481,572.667,1884.08,583C1898.68,593.333,1898.68,601.667,1898.68,610C1898.68,618.333,1898.68,626.667,1898.68,640.333C1898.68,654,1898.68,673,1898.68,682.5L1898.68,692" id="L_GUARDIAN_SESSION_0" class="edge-thickness-normal edge-pattern-solid edge-thickness-normal edge-pattern-solid flowchart-link" style=";" data-edge="true" data-et="edge" data-id="L_GUARDIAN_SESSION_0" data-points="W3sieCI6MTgxMS4wODIzMzk2MzgxNTgsInkiOjU0OH0seyJ4IjoxODk4LjY3OTY4NzUsInkiOjU4NX0seyJ4IjoxODk4LjY3OTY4NzUsInkiOjYxMH0seyJ4IjoxODk4LjY3OTY4NzUsInkiOjYzNX0seyJ4IjoxODk4LjY3OTY4NzUsInkiOjY5Nn1d" marker-end="url(#my-svg_flowchart-v2-pointEnd)"/><path d="M1465.008,334.013L1560.853,344.344C1656.698,354.675,1848.388,375.338,1944.233,391.835C2040.078,408.333,2040.078,420.667,2040.078,439.5C2040.078,458.333,2040.078,483.667,2040.078,509C2040.078,534.333,2040.078,559.667,2040.078,576.5C2040.078,593.333,2040.078,601.667,2040.078,610C2040.078,618.333,2040.078,626.667,2053.614,638.666C2067.149,650.666,2094.22,666.331,2107.756,674.164L2121.292,681.997" id="L_ORCH_PROJ_0" class="edge-thickness-normal edge-pattern-solid edge-thickness-normal edge-pattern-solid flowchart-link" style=";" data-edge="true" data-et="edge" data-id="L_ORCH_PROJ_0" data-points="W3sieCI6MTQ2NS4wMDc4MTI1LCJ5IjozMzQuMDEyNzg2ODQ1MjgzNn0seyJ4IjoyMDQwLjA3ODEyNSwieSI6Mzk2fSx7IngiOjIwNDAuMDc4MTI1LCJ5Ijo0MzN9LHsieCI6MjA0MC4wNzgxMjUsInkiOjUwOX0seyJ4IjoyMDQwLjA3ODEyNSwieSI6NTg1fSx7IngiOjIwNDAuMDc4MTI1LCJ5Ijo2MTB9LHsieCI6MjA0MC4wNzgxMjUsInkiOjYzNX0seyJ4IjoyMTI0Ljc1MzYzOTkxNDc3MjUsInkiOjY4NH1d" marker-end="url(#my-svg_flowchart-v2-pointEnd)"/><path d="M1338.764,359L1339.358,365.167C1339.952,371.333,1341.14,383.667,1341.734,396C1342.328,408.333,1342.328,420.667,1342.328,439.5C1342.328,458.333,1342.328,483.667,1342.328,509C1342.328,534.333,1342.328,559.667,1342.328,576.5C1342.328,593.333,1342.328,601.667,1342.328,610C1342.328,618.333,1342.328,626.667,1347.042,640.402C1351.756,654.137,1361.183,673.275,1365.897,682.843L1370.611,692.412" id="L_ORCH_DB_0" class="edge-thickness-normal edge-pattern-solid edge-thickness-normal edge-pattern-solid flowchart-link" style=";" data-edge="true" data-et="edge" data-id="L_ORCH_DB_0" data-points="W3sieCI6MTMzOC43NjQyODg2NTEzMTU4LCJ5IjozNTl9LHsieCI6MTM0Mi4zMjgxMjUsInkiOjM5Nn0seyJ4IjoxMzQyLjMyODEyNSwieSI6NDMzfSx7IngiOjEzNDIuMzI4MTI1LCJ5Ijo1MDl9LHsieCI6MTM0Mi4zMjgxMjUsInkiOjU4NX0seyJ4IjoxMzQyLjMyODEyNSwieSI6NjEwfSx7IngiOjEzNDIuMzI4MTI1LCJ5Ijo2MzV9LHsieCI6MTM3Mi4zNzg2Mzk5MTQ3NzI3LCJ5Ijo2OTZ9XQ==" marker-end="url(#my-svg_flowchart-v2-pointEnd)"/></g><g class="edgeLabels"><g class="edgeLabel"><g class="label" data-id="L_CMD1_ORCH_0" transform="translate(0, 0)"><foreignObject width="0" height="0"><div xmlns="http://www.w3.org/1999/xhtml" class="labelBkg" style="display: table-cell; white-space: nowrap; line-height: 1.5; max-width: 200px; text-align: center;"><span class="edgeLabel"></span></div></foreignObject></g></g><g class="edgeLabel" transform="translate(2192.1484375, 396)"><g class="label" data-id="L_CMD2_PROJ_0" transform="translate(-21.34375, -12)"><foreignObject width="42.6875" height="24"><div xmlns="http://www.w3.org/1999/xhtml" class="labelBkg" style="display: table-cell; white-space: nowrap; line-height: 1.5; max-width: 200px; text-align: center;"><span class="edgeLabel"><p>direct</p></span></div></foreignObject></g></g><g class="edgeLabel"><g class="label" data-id="L_CMD3_S_FORGE_0" transform="translate(0, 0)"><foreignObject width="0" height="0"><div xmlns="http://www.w3.org/1999/xhtml" class="labelBkg" style="display: table-cell; white-space: nowrap; line-height: 1.5; max-width: 200px; text-align: center;"><span class="edgeLabel"></span></div></foreignObject></g></g><g class="edgeLabel" transform="translate(1169.6015625, 396)"><g class="label" data-id="L_ORCH_ANALYSIS_0" transform="translate(-14.203125, -12)"><foreignObject width="28.40625" height="24"><div xmlns="http://www.w3.org/1999/xhtml" class="labelBkg" style="display: table-cell; white-space: nowrap; line-height: 1.5; max-width: 200px; text-align: center;"><span class="edgeLabel"><p>INIT</p></span></div></foreignObject></g></g><g class="edgeLabel" transform="translate(1106.4375, 396)"><g class="label" data-id="L_ORCH_REVIEW_0" transform="translate(-28.9609375, -12)"><foreignObject width="57.921875" height="24"><div xmlns="http://www.w3.org/1999/xhtml" class="labelBkg" style="display: table-cell; white-space: nowrap; line-height: 1.5; max-width: 200px; text-align: center;"><span class="edgeLabel"><p>validate</p></span></div></foreignObject></g></g><g class="edgeLabel" transform="translate(1227.453125, 396)"><g class="label" data-id="L_ORCH_DEBUG_0" transform="translate(-23.6484375, -12)"><foreignObject width="47.296875" height="24"><div xmlns="http://www.w3.org/1999/xhtml" class="labelBkg" style="display: table-cell; white-space: nowrap; line-height: 1.5; max-width: 200px; text-align: center;"><span class="edgeLabel"><p>failure</p></span></div></foreignObject></g></g><g class="edgeLabel"><g class="label" data-id="L_ORCH_S_FORGE_0" transform="translate(0, 0)"><foreignObject width="0" height="0"><div xmlns="http://www.w3.org/1999/xhtml" class="labelBkg" style="display: table-cell; white-space: nowrap; line-height: 1.5; max-width: 200px; text-align: center;"><span class="edgeLabel"></span></div></foreignObject></g></g><g class="edgeLabel"><g class="label" data-id="L_ORCH_GUARDIAN_0" transform="translate(0, 0)"><foreignObject width="0" height="0"><div xmlns="http://www.w3.org/1999/xhtml" class="labelBkg" style="display: table-cell; white-space: nowrap; line-height: 1.5; max-width: 200px; text-align: center;"><span class="edgeLabel"></span></div></foreignObject></g></g><g class="edgeLabel"><g class="label" data-id="L_ANALYSIS_S_FORGE_0" transform="translate(0, 0)"><foreignObject width="0" height="0"><div xmlns="http://www.w3.org/1999/xhtml" class="labelBkg" style="display: table-cell; white-space: nowrap; line-height: 1.5; max-width: 200px; text-align: center;"><span class="edgeLabel"></span></div></foreignObject></g></g><g class="edgeLabel"><g class="label" data-id="L_REVIEW_S_FORGE_0" transform="translate(0, 0)"><foreignObject width="0" height="0"><div xmlns="http://www.w3.org/1999/xhtml" class="labelBkg" style="display: table-cell; white-space: nowrap; line-height: 1.5; max-width: 200px; text-align: center;"><span class="edgeLabel"></span></div></foreignObject></g></g><g class="edgeLabel"><g class="label" data-id="L_GUARDIAN_RULES_0" transform="translate(0, 0)"><foreignObject width="0" height="0"><div xmlns="http://www.w3.org/1999/xhtml" class="labelBkg" style="display: table-cell; white-space: nowrap; line-height: 1.5; max-width: 200px; text-align: center;"><span class="edgeLabel"></span></div></foreignObject></g></g><g class="edgeLabel"><g class="label" data-id="L_GUARDIAN_DB_0" transform="translate(0, 0)"><foreignObject width="0" height="0"><div xmlns="http://www.w3.org/1999/xhtml" class="labelBkg" style="display: table-cell; white-space: nowrap; line-height: 1.5; max-width: 200px; text-align: center;"><span class="edgeLabel"></span></div></foreignObject></g></g><g class="edgeLabel"><g class="label" data-id="L_GUARDIAN_SESSION_0" transform="translate(0, 0)"><foreignObject width="0" height="0"><div xmlns="http://www.w3.org/1999/xhtml" class="labelBkg" style="display: table-cell; white-space: nowrap; line-height: 1.5; max-width: 200px; text-align: center;"><span class="edgeLabel"></span></div></foreignObject></g></g><g class="edgeLabel"><g class="label" data-id="L_ORCH_PROJ_0" transform="translate(0, 0)"><foreignObject width="0" height="0"><div xmlns="http://www.w3.org/1999/xhtml" class="labelBkg" style="display: table-cell; white-space: nowrap; line-height: 1.5; max-width: 200px; text-align: center;"><span class="edgeLabel"></span></div></foreignObject></g></g><g class="edgeLabel"><g class="label" data-id="L_ORCH_DB_0" transform="translate(0, 0)"><foreignObject width="0" height="0"><div xmlns="http://www.w3.org/1999/xhtml" class="labelBkg" style="display: table-cell; white-space: nowrap; line-height: 1.5; max-width: 200px; text-align: center;"><span class="edgeLabel"></span></div></foreignObject></g></g></g><g class="nodes"><g class="root" transform="translate(2363.953125, 25)"><g class="clusters"><g class="cluster" id="SKILLS_ENTRY" data-look="classic"><rect style="" x="8" y="8" width="335" height="148"/><g class="cluster-label" transform="translate(157.375, 8)"><foreignObject width="36.25" height="24"><div xmlns="http://www.w3.org/1999/xhtml" style="display: table-cell; white-space: nowrap; line-height: 1.5;"><span class="nodeLabel"><p>Skills</p></span></div></foreignObject></g></g></g><g class="edgePaths"/><g class="edgeLabels"/><g class="nodes"><g class="node default" id="flowchart-SK1-0" transform="translate(175.5, 82)"><rect class="basic label-container" style="" x="-130" y="-39" width="260" height="78"/><g class="label" style="" transform="translate(-100, -24)"><rect/><foreignObject width="200" height="48"><div xmlns="http://www.w3.org/1999/xhtml" style="display: table; white-space: break-spaces; line-height: 1.5; max-width: 200px; text-align: center; width: 200px;"><span class="nodeLabel"><p>/sprint-forge — Core: INIT · SPRINT · STATUS + helpers</p></span></div></foreignObject></g></g></g></g><g class="node default" id="flowchart-CMD1-1" transform="translate(1335.0078125, 107)"><rect class="basic label-container" style="" x="-107.1484375" y="-27" width="214.296875" height="54"/><g class="label" style="" transform="translate(-77.1484375, -12)"><rect/><foreignObject width="154.296875" height="24"><div xmlns="http://www.w3.org/1999/xhtml" style="display: table-cell; white-space: nowrap; line-height: 1.5; max-width: 200px; text-align: center;"><span class="nodeLabel"><p>/kyro-workflow:forge</p></span></div></foreignObject></g></g><g class="node default" id="flowchart-CMD2-2" transform="translate(2192.1484375, 107)"><rect class="basic label-container" style="" x="-109.8046875" y="-27" width="219.609375" height="54"/><g class="label" style="" transform="translate(-79.8046875, -12)"><rect/><foreignObject width="159.609375" height="24"><div xmlns="http://www.w3.org/1999/xhtml" style="display: table-cell; white-space: nowrap; line-height: 1.5; max-width: 200px; text-align: center;"><span class="nodeLabel"><p>/kyro-workflow:status</p></span></div></foreignObject></g></g><g class="node default" id="flowchart-CMD3-3" transform="translate(1016.765625, 107)"><rect class="basic label-container" style="" x="-117.8984375" y="-27" width="235.796875" height="54"/><g class="label" style="" transform="translate(-87.8984375, -12)"><rect/><foreignObject width="175.796875" height="24"><div xmlns="http://www.w3.org/1999/xhtml" style="display: table-cell; white-space: nowrap; line-height: 1.5; max-width: 200px; text-align: center;"><span class="nodeLabel"><p>/kyro-workflow:wrap-up</p></span></div></foreignObject></g></g><g class="node default" id="flowchart-ORCH-4" transform="translate(1335.0078125, 320)"><rect class="basic label-container" style="" x="-130" y="-39" width="260" height="78"/><g class="label" style="" transform="translate(-100, -24)"><rect/><foreignObject width="200" height="48"><div xmlns="http://www.w3.org/1999/xhtml" style="display: table; white-space: break-spaces; line-height: 1.5; max-width: 200px; text-align: center; width: 200px;"><span class="nodeLabel"><p>orchestrator — opus · read+write</p></span></div></foreignObject></g></g><g class="node default" id="flowchart-GUARDIAN-5" transform="translate(1718.75, 509)"><rect class="basic label-container" style="" x="-130" y="-39" width="260" height="78"/><g class="label" style="" transform="translate(-100, -24)"><rect/><foreignObject width="200" height="48"><div xmlns="http://www.w3.org/1999/xhtml" style="display: table; white-space: break-spaces; line-height: 1.5; max-width: 200px; text-align: center; width: 200px;"><span class="nodeLabel"><p>guardian — configurable event-based checkpoints</p></span></div></foreignObject></g></g><g class="node default" id="flowchart-ANALYSIS-6" transform="translate(521.765625, 509)"><rect class="basic label-container" style="" x="-130" y="-39" width="260" height="78"/><g class="label" style="" transform="translate(-100, -24)"><rect/><foreignObject width="200" height="48"><div xmlns="http://www.w3.org/1999/xhtml" style="display: table; white-space: break-spaces; line-height: 1.5; max-width: 200px; text-align: center; width: 200px;"><span class="nodeLabel"><p>Analysis Protocol — read-only exploration</p></span></div></foreignObject></g></g><g class="node default" id="flowchart-REVIEW-7" transform="translate(192.3828125, 509)"><rect class="basic label-container" style="" x="-149.3828125" y="-39" width="298.765625" height="78"/><g class="label" style="" transform="translate(-119.3828125, -24)"><rect/><foreignObject width="238.765625" height="48"><div xmlns="http://www.w3.org/1999/xhtml" style="display: table; white-space: break-spaces; line-height: 1.5; max-width: 200px; text-align: center; width: 200px;"><span class="nodeLabel"><p>Review Checklist — BLOCKER/WARNING/SUGGESTION</p></span></div></foreignObject></g></g><g class="node default" id="flowchart-DEBUG-8" transform="translate(831.765625, 509)"><rect class="basic label-container" style="" x="-130" y="-51" width="260" height="102"/><g class="label" style="" transform="translate(-100, -36)"><rect/><foreignObject width="200" height="72"><div xmlns="http://www.w3.org/1999/xhtml" style="display: table; white-space: break-spaces; line-height: 1.5; max-width: 200px; text-align: center; width: 200px;"><span class="nodeLabel"><p>Debug Protocol — hypothesis-driven root cause</p></span></div></foreignObject></g></g><g class="node default" id="flowchart-S_FORGE-9" transform="translate(531.765625, 723)"><rect class="basic label-container" style="" x="-130" y="-63" width="260" height="126"/><g class="label" style="" transform="translate(-100, -48)"><rect/><foreignObject width="200" height="96"><div xmlns="http://www.w3.org/1999/xhtml" style="display: table; white-space: break-spaces; line-height: 1.5; max-width: 200px; text-align: center; width: 200px;"><span class="nodeLabel"><p>sprint-forge — modes · helpers (analyzer, reviewer, learner, metrics, handoff) · templates</p></span></div></foreignObject></g></g><g class="node default" id="flowchart-DB-10" transform="translate(1385.6796875, 723)"><rect class="basic label-container" style="" x="-91.703125" y="-27" width="183.40625" height="54"/><g class="label" style="" transform="translate(-61.703125, -12)"><rect/><foreignObject width="123.40625" height="24"><div xmlns="http://www.w3.org/1999/xhtml" style="display: table-cell; white-space: nowrap; line-height: 1.5; max-width: 200px; text-align: center;"><span class="nodeLabel"><p>data.db — SQLite</p></span></div></foreignObject></g></g><g class="node default" id="flowchart-RULES-11" transform="translate(1646.6328125, 723)"><rect class="basic label-container" style="" x="-119.25" y="-27" width="238.5" height="54"/><g class="label" style="" transform="translate(-89.25, -12)"><rect/><foreignObject width="178.5" height="24"><div xmlns="http://www.w3.org/1999/xhtml" style="display: table-cell; white-space: nowrap; line-height: 1.5; max-width: 200px; text-align: center;"><span class="nodeLabel"><p>rules.md — learned rules</p></span></div></foreignObject></g></g><g class="node default" id="flowchart-SESSION-12" transform="translate(1898.6796875, 723)"><rect class="basic label-container" style="" x="-82.796875" y="-27" width="165.59375" height="54"/><g class="label" style="" transform="translate(-52.796875, -12)"><rect/><foreignObject width="105.59375" height="24"><div xmlns="http://www.w3.org/1999/xhtml" style="display: table-cell; white-space: nowrap; line-height: 1.5; max-width: 200px; text-align: center;"><span class="nodeLabel"><p>.active-session</p></span></div></foreignObject></g></g><g class="node default" id="flowchart-PROJ-13" transform="translate(2192.1484375, 723)"><rect class="basic label-container" style="" x="-130" y="-39" width="260" height="78"/><g class="label" style="" transform="translate(-100, -24)"><rect/><foreignObject width="200" height="48"><div xmlns="http://www.w3.org/1999/xhtml" style="display: table; white-space: break-spaces; line-height: 1.5; max-width: 200px; text-align: center; width: 200px;"><span class="nodeLabel"><p>{project}/ — findings · sprints · ROADMAP</p></span></div></foreignObject></g></g></g></g></g></svg>